<mxfile host="app.diagrams.net" modified="2021-08-12T09:15:51.356Z" agent="5.0 (Macintosh; Intel Mac OS X 10_15_7) AppleWebKit/537.36 (KHTML, like Gecko) Chrome/91.0.4472.114 Safari/537.36" etag="SJe52NeCt-ZHCYZ2W9qw" version="14.9.5" type="github">
  <diagram id="sIemllTpQsOBeDZOYHDE" name="Page-1">
    <mxGraphModel dx="1707" dy="809" grid="1" gridSize="10" guides="1" tooltips="1" connect="1" arrows="1" fold="1" page="1" pageScale="1" pageWidth="850" pageHeight="1100" math="0" shadow="0">
      <root>
        <mxCell id="0" />
        <mxCell id="1" parent="0" />
        <mxCell id="-XM3w6noAKFkYnl8Hoz7-1" value="&lt;font style=&quot;font-size: 16px&quot;&gt;拍立淘&lt;/font&gt;" style="rounded=0;whiteSpace=wrap;html=1;fillColor=#fff2cc;strokeColor=#d6b656;" vertex="1" parent="1">
          <mxGeometry x="580" y="490" width="100" height="40" as="geometry" />
        </mxCell>
        <mxCell id="-XM3w6noAKFkYnl8Hoz7-2" style="edgeStyle=orthogonalEdgeStyle;rounded=0;orthogonalLoop=1;jettySize=auto;html=1;exitX=0.5;exitY=1;exitDx=0;exitDy=0;entryX=0.5;entryY=0;entryDx=0;entryDy=0;" edge="1" parent="1" source="-XM3w6noAKFkYnl8Hoz7-3" target="-XM3w6noAKFkYnl8Hoz7-5">
          <mxGeometry relative="1" as="geometry" />
        </mxCell>
        <mxCell id="-XM3w6noAKFkYnl8Hoz7-3" value="&lt;font style=&quot;font-size: 16px&quot;&gt;填入商品ID&lt;/font&gt;" style="rounded=1;whiteSpace=wrap;html=1;fontSize=12;glass=0;strokeWidth=1;shadow=0;" vertex="1" parent="1">
          <mxGeometry x="170" y="560" width="120" height="40" as="geometry" />
        </mxCell>
        <mxCell id="-XM3w6noAKFkYnl8Hoz7-4" style="edgeStyle=orthogonalEdgeStyle;rounded=0;orthogonalLoop=1;jettySize=auto;html=1;entryX=0.523;entryY=-0.07;entryDx=0;entryDy=0;entryPerimeter=0;" edge="1" parent="1" source="-XM3w6noAKFkYnl8Hoz7-5" target="-XM3w6noAKFkYnl8Hoz7-9">
          <mxGeometry relative="1" as="geometry" />
        </mxCell>
        <mxCell id="-XM3w6noAKFkYnl8Hoz7-5" value="&lt;font style=&quot;font-size: 16px&quot;&gt;调i2i行为接口&lt;/font&gt;" style="rounded=1;whiteSpace=wrap;html=1;fontSize=12;glass=0;strokeWidth=1;shadow=0;" vertex="1" parent="1">
          <mxGeometry x="170" y="640" width="120" height="40" as="geometry" />
        </mxCell>
        <mxCell id="-XM3w6noAKFkYnl8Hoz7-6" value="&lt;font style=&quot;font-size: 16px&quot;&gt;运营&lt;/font&gt;" style="rounded=0;whiteSpace=wrap;html=1;fillColor=#fff2cc;strokeColor=#d6b656;" vertex="1" parent="1">
          <mxGeometry x="180" y="490" width="100" height="40" as="geometry" />
        </mxCell>
        <mxCell id="-XM3w6noAKFkYnl8Hoz7-7" value="&lt;font style=&quot;font-size: 16px&quot;&gt;TPP接口&lt;/font&gt;" style="rounded=0;whiteSpace=wrap;html=1;fillColor=#fff2cc;strokeColor=#d6b656;" vertex="1" parent="1">
          <mxGeometry x="380" y="490" width="100" height="40" as="geometry" />
        </mxCell>
        <mxCell id="-XM3w6noAKFkYnl8Hoz7-8" style="edgeStyle=orthogonalEdgeStyle;rounded=0;orthogonalLoop=1;jettySize=auto;html=1;exitX=0.5;exitY=1;exitDx=0;exitDy=0;" edge="1" parent="1" source="-XM3w6noAKFkYnl8Hoz7-9" target="-XM3w6noAKFkYnl8Hoz7-11">
          <mxGeometry relative="1" as="geometry" />
        </mxCell>
        <mxCell id="-XM3w6noAKFkYnl8Hoz7-9" value="&lt;span style=&quot;font-size: 16px&quot;&gt;调用拍立淘接口&lt;/span&gt;" style="rounded=1;whiteSpace=wrap;html=1;fontSize=12;glass=0;strokeWidth=1;shadow=0;" vertex="1" parent="1">
          <mxGeometry x="370" y="690" width="120" height="40" as="geometry" />
        </mxCell>
        <mxCell id="-XM3w6noAKFkYnl8Hoz7-10" style="edgeStyle=orthogonalEdgeStyle;rounded=0;orthogonalLoop=1;jettySize=auto;html=1;entryX=0.5;entryY=0;entryDx=0;entryDy=0;exitX=0.535;exitY=0.989;exitDx=0;exitDy=0;exitPerimeter=0;" edge="1" parent="1" source="-XM3w6noAKFkYnl8Hoz7-11" target="-XM3w6noAKFkYnl8Hoz7-13">
          <mxGeometry relative="1" as="geometry">
            <Array as="points">
              <mxPoint x="634" y="830" />
              <mxPoint x="430" y="830" />
            </Array>
          </mxGeometry>
        </mxCell>
        <mxCell id="-XM3w6noAKFkYnl8Hoz7-11" value="&lt;span style=&quot;font-size: 16px&quot;&gt;通过图片url&lt;br&gt;找相似&lt;/span&gt;" style="rounded=1;whiteSpace=wrap;html=1;fontSize=12;glass=0;strokeWidth=1;shadow=0;" vertex="1" parent="1">
          <mxGeometry x="570" y="770" width="120" height="40" as="geometry" />
        </mxCell>
        <mxCell id="-XM3w6noAKFkYnl8Hoz7-12" style="edgeStyle=orthogonalEdgeStyle;rounded=0;orthogonalLoop=1;jettySize=auto;html=1;exitX=0.5;exitY=1;exitDx=0;exitDy=0;" edge="1" parent="1" source="-XM3w6noAKFkYnl8Hoz7-13" target="-XM3w6noAKFkYnl8Hoz7-14">
          <mxGeometry relative="1" as="geometry" />
        </mxCell>
        <mxCell id="-XM3w6noAKFkYnl8Hoz7-13" value="&lt;span style=&quot;font-size: 16px&quot;&gt;返回相似商品summary&lt;/span&gt;" style="rounded=1;whiteSpace=wrap;html=1;fontSize=12;glass=0;strokeWidth=1;shadow=0;" vertex="1" parent="1">
          <mxGeometry x="370" y="850" width="120" height="40" as="geometry" />
        </mxCell>
        <mxCell id="-XM3w6noAKFkYnl8Hoz7-14" value="&lt;span style=&quot;font-size: 16px&quot;&gt;完成1对n商品&lt;/span&gt;&lt;br style=&quot;font-size: 16px&quot;&gt;&lt;span style=&quot;font-size: 16px&quot;&gt;屏蔽&lt;/span&gt;" style="rounded=1;whiteSpace=wrap;html=1;fontSize=12;glass=0;strokeWidth=1;shadow=0;" vertex="1" parent="1">
          <mxGeometry x="160" y="931" width="120" height="40" as="geometry" />
        </mxCell>
      </root>
    </mxGraphModel>
  </diagram>
</mxfile>
